<?xml version="1.0" encoding="utf-8"?>
<!-- Generator: Adobe Illustrator 25.0.1, SVG Export Plug-In . SVG Version: 6.00 Build 0)  -->
<svg version="1.1" id="Layer_1" xmlns="http://www.w3.org/2000/svg" xmlns:xlink="http://www.w3.org/1999/xlink" x="0px" y="0px"
	 viewBox="0 0 1920 1080" style="enable-background:new 0 0 1920 1080;" xml:space="preserve">
<style type="text/css">
	.st0{stroke:#000000;stroke-miterlimit:10;}
	.st1{fill:#6D6E71;}
	.st2{fill:#ED1C24;}
</style>
<rect class="st0" width="1920" height="1080"/>
<path class="st1" d="M1040.56,720.55l-22.79-3.56l-2.17-0.35c-14.11-2.23-13.99-20.58-13.99-20.58c0-5.72,0-12.16,0-18.48
	c0-10.81,0-21.16,0-26.57c0-19.08-14.52-13.1-14.52-13.1L692.83,765.69c64.15,75,160.38,123.97,266.84,123.97
	c113.63,0,214.41-54.31,278.32-138.23L1040.56,720.55z"/>
<path class="st2" d="M959.67,189.67c-193.33,0-350.01,156.69-350.01,350c0,48.99,10.08,95.59,28.26,137.91l50.91-19.81l2.2-8.89
	l111.35-41.46l2.65-9.9l105.96-39.22l1.69-10.28l111.79-40.26l3.36-11.47l50.46-20.23l-0.05-0.17l13.42-5.18l47.72-19.13l0.12,0.64
	l0.63-0.24l14.13,36.58l-42.46,16.41l-8.47,3.71l0,0l-1.04,0.45c-2.84,1.32-11.13,6.12-11.13,17.64c0,13.91,0,95.58,0,95.58
	s-2.92,15.17,13.27,17.67l180.89,27.89c15.65-39.73,24.33-82.95,24.33-128.24C1309.67,346.36,1152.97,189.67,959.67,189.67z
	 M854.64,469.12c-37.31,0-67.56-30.26-67.56-67.57s30.26-67.57,67.56-67.57c37.34,0,67.57,30.26,67.57,67.57
	S891.98,469.12,854.64,469.12z"/>
</svg>
